<svg height="974" width="720" xmlns="http://www.w3.org/2000/svg">
<rect height="974" fill="#555" width="720"></rect>
<text fill="#7f7" font-family="Courier New" font-size="12" xml:space="preserve">
<tspan x="10" y="26"></tspan>

<tspan x="10" y="42">[MODE_BUILD=buildApp] - 2018-06-10T18:04:26.205Z - npm-testing /home/travis/build/npmtest/node-n\</tspan>
<tspan x="10" y="58">pmtest-react</tspan>

<tspan x="10" y="74"></tspan>

<tspan x="10" y="90"></tspan>

<tspan x="10" y="106">buildApp - merged test-report from file /home/travis/build/npmtest/node-npmtest-react/tmp/build/\</tspan>
<tspan x="10" y="122">test-report.json</tspan>

<tspan x="10" y="138">&gt; server listening on http-port 54760</tspan>

<tspan x="10" y="154">apidocCreate - readExample /home/travis/build/npmtest/node-npmtest-react/node_modules/react/pack\</tspan>
<tspan x="10" y="170">age.json</tspan>

<tspan x="10" y="186">apidocCreate - readExample /home/travis/build/npmtest/node-npmtest-react/node_modules/react/.git\</tspan>
<tspan x="10" y="202">ignore</tspan>

<tspan x="10" y="218">apidocCreate - readExample /home/travis/build/npmtest/node-npmtest-react/node_modules/react/inde\</tspan>
<tspan x="10" y="234">x.js</tspan>

<tspan x="10" y="250">apidocCreate - readExample /home/travis/build/npmtest/node-npmtest-react/node_modules/react/LICE\</tspan>
<tspan x="10" y="266">NSE</tspan>

<tspan x="10" y="282">apidocCreate - readExample /home/travis/build/npmtest/node-npmtest-react/node_modules/react/pack\</tspan>
<tspan x="10" y="298">age.json</tspan>

<tspan x="10" y="314">apidocCreate - readExample /home/travis/build/npmtest/node-npmtest-react/node_modules/react/READ\</tspan>
<tspan x="10" y="330">ME.md</tspan>

<tspan x="10" y="346">apidocCreate - readExample /home/travis/build/npmtest/node-npmtest-react/node_modules/react/cjs/\</tspan>
<tspan x="10" y="362">react.development.js</tspan>

<tspan x="10" y="378">apidocCreate - readExample /home/travis/build/npmtest/node-npmtest-react/node_modules/react/umd/\</tspan>
<tspan x="10" y="394">react.development.js</tspan>

<tspan x="10" y="410">apidocCreate - requiring /home/travis/build/npmtest/node-npmtest-react/node_modules/react ...</tspan>

<tspan x="10" y="426">apidocCreate - ... required /home/travis/build/npmtest/node-npmtest-react/node_modules/react</tspan>

<tspan x="10" y="442">apidocCreate - libFile cjs/react.development.js</tspan>

<tspan x="10" y="458">apidocCreate - libFile umd/react.development.js</tspan>

<tspan x="10" y="474">created customOrg file /home/travis/build/npmtest/node-npmtest-react/README.md</tspan>

<tspan x="10" y="490"></tspan>

<tspan x="10" y="506">(node:5837) DeprecationWarning: _linklist module is deprecated. Please use a userland alternativ\</tspan>
<tspan x="10" y="522">e.</tspan>

<tspan x="10" y="538">(node:5837) DeprecationWarning: sys is deprecated. Use util instead.</tspan>

<tspan x="10" y="554">&gt; server listening on http-port 51995</tspan>

<tspan x="10" y="570">[node test-case 1 of 1 passed] - testCase_buildApp_default</tspan>

<tspan x="10" y="586"></tspan>

<tspan x="10" y="602">buildApp - merged test-report from file /home/travis/build/npmtest/node-npmtest-react/tmp/build/\</tspan>
<tspan x="10" y="618">test-report.json</tspan>

<tspan x="10" y="634"></tspan>

<tspan x="10" y="650">-------------------------------------------------------</tspan>

<tspan x="10" y="666">| test-report - buildApidoc - node - linux v6.14.2 - 2018-06-10T18:03:50.672Z</tspan>

<tspan x="10" y="682">|   41711 ms            0 failed        1 passed      |</tspan>

<tspan x="10" y="698">-------------------------------------------------------</tspan>

<tspan x="10" y="714">| test-report - buildApp - node - linux v6.14.2 - 2018-06-10T18:03:21.270Z</tspan>

<tspan x="10" y="730">|   26277 ms            0 failed        8 passed      |</tspan>

<tspan x="10" y="746">-------------------------------------------------------</tspan>

<tspan x="10" y="762">| test-report - npmTest - browser - / - Mozilla/5.0 (X11; Linux x86_64) AppleWebKit/537.36 (KHTM\</tspan>
<tspan x="10" y="778">L, like Gecko) Chrome/58.0.3029.110 Electron/1.7.15 Safari/537.36 - 2018-06-10T18:03:32.923Z</tspan>

<tspan x="10" y="794">|      54 ms            0 failed        8 passed      |</tspan>

<tspan x="10" y="810">-------------------------------------------------------</tspan>

<tspan x="10" y="826"></tspan>

<tspan x="10" y="842">created test-report file /home/travis/build/npmtest/node-npmtest-react/tmp/build/test-report.htm\</tspan>
<tspan x="10" y="858">l</tspan>

<tspan x="10" y="874"></tspan>

<tspan x="10" y="890"></tspan>

<tspan x="10" y="906">buildApp - 0 failed tests</tspan>

<tspan x="10" y="922"></tspan>

<tspan x="10" y="938"></tspan>

<tspan x="10" y="954">[MODE_BUILD=buildApp] - 2018-06-10T18:04:33.931Z - EXIT_CODE - 0</tspan>

</text>
</svg>
